<svg xmlns="http://www.w3.org/2000/svg" viewBox="0 0 800 103.96"><defs><style>.cls-1{fill:#fff;}</style></defs><title>logo_white</title><g id="Layer_2" data-name="Layer 2"><g id="Layer_1-2" data-name="Layer 1"><path class="cls-1" d="M170.84,3.57v13.3q-6.22-4.46-11.2-4.46a11.27,11.27,0,0,0-8.78,3.8q-3.41,3.62-3.4,9.63A16.56,16.56,0,0,0,149.88,35,40.42,40.42,0,0,0,154,40.19q2.85,3.21,7.37,7.73,8.32,8.44,11.34,14.61a32.09,32.09,0,0,1,3,14.6q0,11.73-6.62,19.33a21.73,21.73,0,0,1-17,7.4,23.49,23.49,0,0,1-14.87-4.78V85.59q7.26,5.3,13.23,5.3a10.8,10.8,0,0,0,8.71-3.7q3.15-3.7,3.15-10.06a20.1,20.1,0,0,0-2.43-9.89,40.54,40.54,0,0,0-3.47-4.81q-2.22-2.72-5.57-6.06-5.18-5.11-8.58-9a42.32,42.32,0,0,1-5-6.88q-3.15-5.76-3.15-14.54,0-11.86,6.16-18.8T157,.1A29.54,29.54,0,0,1,170.84,3.57Z"/><path class="cls-1" d="M205.73,1.47h10.61L238,102.62H224.53l-3.8-19.72h-20l-3.86,19.72H183.71Zm13,70.88-3-16.11q-3-16.44-4.92-35.11-.92,9.11-2.35,18.44t-3.41,19.81l-2.49,13Z"/><path class="cls-1" d="M256.16,1.47h11.66l8.91,41.27q1.63,7.74,3,15.5t2.46,16.27c.08-.74.15-1.32.19-1.73s.09-.71.13-.89l1.9-11.59,1.71-11L287.6,42l7.93-40.55h11.79l9.3,101.15h-13L301.3,68.29c-.09-1.75-.17-3.25-.23-4.52s-.1-2.31-.1-3.14l-.59-13.56-.33-12.45c0-.09,0-.27,0-.56s-.06-.66-.1-1.14l-.33,2c-.35,2.4-.66,4.5-.95,6.29s-.53,3.3-.75,4.52L296.19,55l-.66,3.48L287,102.62h-9.17l-8-38.13Q268.21,57,266.94,49.2t-2.33-16.28l-3.93,69.7H247.84Z"/><path class="cls-1" d="M330.57,1.47h17.95q13,0,18.87,6.55t5.9,21q0,20.17-11.86,26.07-6,2.69-17.23,2.68v44.88H330.57ZM344.2,46.08q8.44,0,11.66-3.4t3.28-12.32c0-6-1.05-10.44-3.15-13.23s-5.39-4.19-9.89-4.19h-1.9Z"/><path class="cls-1" d="M383.77,1.47h13.62V91.09h22.27v11.53H383.77Z"/><path class="cls-1" d="M430.86,1.47h36.23V13h-22.6V45h20.05V56.56H444.49V91.09h22.6v11.53H430.86Z"/><path class="cls-1" d="M507.38,1.47h16.77a42,42,0,0,1,12.9,1.71A20.37,20.37,0,0,1,545.7,9q5.7,6.28,8.12,16.37,2.43,9.77,2.43,28,0,16.69-2.69,27.25Q550.93,90.69,544.91,96q-7.39,6.61-26.53,6.62h-11ZM521,90.69q12.45,0,16.64-7.53T542,53.88q0-23.39-4.12-32.17t-15.13-8.77H521Z"/><path class="cls-1" d="M568.3,1.47h36.22V13h-22.6V45H602V56.56H581.92V91.09h22.6v11.53H568.3Z"/><path class="cls-1" d="M650.77,3.57v13.3q-6.22-4.46-11.2-4.46a11.27,11.27,0,0,0-8.78,3.8q-3.4,3.62-3.4,9.63A16.56,16.56,0,0,0,629.81,35a41.34,41.34,0,0,0,4.09,5.24q2.86,3.21,7.37,7.73,8.33,8.44,11.34,14.61a32.09,32.09,0,0,1,3,14.6q0,11.73-6.62,19.33a21.73,21.73,0,0,1-17,7.4,23.49,23.49,0,0,1-14.87-4.78V85.59q7.27,5.3,13.23,5.3a10.8,10.8,0,0,0,8.71-3.7q3.15-3.7,3.15-10.06a20.1,20.1,0,0,0-2.43-9.89,39.43,39.43,0,0,0-3.47-4.81q-2.22-2.72-5.57-6.06-5.17-5.11-8.58-9a42.32,42.32,0,0,1-5-6.88Q614,34.69,614,25.91q0-11.86,6.16-18.8t16.71-7A29.53,29.53,0,0,1,650.77,3.57Z"/><path class="cls-1" d="M666.76,1.47h13.62V102.62H666.76Z"/><path class="cls-1" d="M717.2,49.42H742v3.94q0,29.53-5.18,39.89-5.1,10.6-19.13,10.61-14.48,0-20.63-11.79t-6.09-39.63q0-31.84,6.68-42.39Q703.9.16,716.93.16q10,0,15.53,4.79t8.78,15.91l-12.71,5.31a45.72,45.72,0,0,0-1.9-6.72,15.44,15.44,0,0,0-2.29-4.22q-2.49-3.08-7.47-3.08-6.81,0-9.3,8.39-2.49,8.78-2.49,31.51,0,23,2.55,31.11c1.71,5.42,4.91,8.12,9.63,8.12a9.25,9.25,0,0,0,9.11-5.76q2.68-6.15,2.68-19.78V61H717.2Z"/><path class="cls-1" d="M752.84,1.47h12.7L779.1,41.83a367.73,367.73,0,0,1,10.42,36.48q-1.63-11.72-2.42-21.22t-.79-17.88V1.47H800V102.62H787.23L772,57.09c-1.39-4.24-2.72-8.58-4-13s-2.39-9.12-3.44-14c-.09-.61-.23-1.35-.43-2.22s-.42-1.88-.68-3c.13,1.14.24,2.11.32,2.92s.16,1.49.2,2.06l.72,10.29.72,12.51c0,.7.08,1.55.1,2.55s0,2.14,0,3.41l.72,44.09H752.84Z"/><path class="cls-1" d="M69.31,0H37.67a3,3,0,0,0-3,3V66.29a3,3,0,0,1-3,3H3a3,3,0,0,0-3,3V101a3,3,0,0,0,3,3H66.29a3,3,0,0,0,3-3V37.67a3,3,0,0,1,3-3H101a3,3,0,0,0,3-3V3a3,3,0,0,0-3-3Z"/></g></g></svg>